<?xml version="1.0" standalone="no"?>
<!DOCTYPE svg PUBLIC "-//W3C//DTD SVG 20010904//EN"
 "http://www.w3.org/TR/2001/REC-SVG-20010904/DTD/svg10.dtd">
<svg version="1.0" xmlns="http://www.w3.org/2000/svg"
 width="626.000000pt" height="417.000000pt" viewBox="0 0 626.000000 417.000000"
 preserveAspectRatio="xMidYMid meet">

<g transform="translate(0.000000,417.000000) scale(0.100000,-0.100000)"
fill="#000000" stroke="none">
<path d="M3850 3750 l0 -230 55 0 55 0 0 85 0 85 48 0 c63 1 127 31 152 72 26
43 26 113 0 156 -30 49 -72 62 -200 62 l-110 0 0 -230z m207 124 c33 -45 2
-94 -59 -94 l-38 0 0 61 0 62 42 -6 c23 -3 48 -14 55 -23z"/>
<path d="M4200 3750 l0 -230 93 0 c132 1 204 36 249 123 46 90 29 202 -40 270
-55 54 -96 67 -207 67 l-95 0 0 -230z m180 125 c15 -8 38 -27 49 -41 41 -52
19 -174 -36 -202 -10 -5 -33 -12 -50 -15 l-33 -6 0 139 c0 134 1 140 20 140
12 0 34 -7 50 -15z"/>
<path d="M4590 3750 l0 -230 50 0 49 0 3 93 3 92 73 3 72 3 0 44 0 45 -75 0
-75 0 0 45 0 45 85 0 85 0 0 45 0 45 -135 0 -135 0 0 -230z"/>
<path d="M3055 3600 c-28 -4 -65 -14 -82 -23 -36 -19 -82 -71 -95 -109 -9 -26
-10 -26 -46 -11 -30 12 -45 13 -88 4 -79 -18 -120 -71 -148 -195 -9 -36 -25
-84 -36 -107 -23 -44 -18 -64 12 -56 16 5 19 2 15 -14 -4 -15 0 -19 24 -19 23
0 30 -5 35 -27 23 -102 30 -117 61 -125 17 -4 38 -19 47 -33 34 -51 65 -23 96
85 14 49 23 118 27 198 6 122 6 123 35 144 39 27 110 48 166 48 56 0 97 -24
142 -85 56 -75 128 -116 242 -140 27 -5 27 -6 30 -96 l3 -91 35 66 c26 49 39
64 51 60 23 -7 51 24 44 47 -5 16 -1 19 24 19 33 0 47 24 36 60 -5 16 -2 20
18 20 14 0 35 9 48 19 39 32 16 55 -63 63 -93 9 -137 33 -200 108 -127 153
-266 213 -433 190z"/>
<path d="M5050 3230 l0 -240 50 0 50 0 0 57 0 57 58 -57 c57 -57 58 -57 117
-57 l59 0 -74 75 -74 75 69 70 69 70 -64 0 c-63 0 -65 -1 -112 -47 l-48 -47 0
142 0 142 -50 0 -50 0 0 -240z"/>
<path d="M3870 3443 c0 -5 -9 -102 -20 -218 -11 -115 -20 -216 -20 -223 0 -9
14 -12 53 -10 l52 3 9 128 c5 70 12 127 15 127 3 0 26 -58 51 -130 45 -130 45
-130 77 -130 31 0 32 1 68 108 63 186 61 185 69 47 9 -160 7 -155 67 -155 43
0 49 2 49 21 0 27 -28 339 -36 397 l-5 42 -57 0 -57 0 -49 -130 c-27 -72 -50
-130 -51 -130 -1 0 -24 59 -51 130 l-49 130 -57 0 c-32 0 -58 -3 -58 -7z"/>
<path d="M4447 3276 c-94 -34 -132 -124 -91 -212 25 -53 76 -79 154 -79 115 0
178 62 168 165 -5 45 -11 59 -41 86 -34 31 -91 54 -132 54 -11 -1 -37 -7 -58
-14z m99 -84 c37 -24 39 -93 4 -112 -70 -38 -137 33 -90 93 21 27 61 36 86 19z"/>
<path d="M4837 3271 c-29 -15 -37 -16 -37 -5 0 10 -14 14 -50 14 l-50 0 0
-145 0 -145 50 0 50 0 0 90 c0 77 3 93 20 110 25 25 52 26 73 2 13 -15 17 -39
17 -110 l0 -92 50 0 50 0 0 111 c0 61 -5 119 -11 131 -11 20 -81 57 -109 58
-9 0 -32 -9 -53 -19z"/>
<path d="M5467 3276 c-108 -39 -139 -157 -66 -241 58 -65 169 -71 235 -13 l36
32 -36 18 c-33 17 -39 17 -58 3 -41 -28 -97 -15 -111 28 -6 15 3 17 98 17
l105 0 0 34 c0 91 -109 156 -203 122z m91 -68 c22 -22 13 -28 -38 -28 -27 0
-50 4 -50 8 0 16 25 32 50 32 14 0 31 -5 38 -12z"/>
<path d="M5650 3276 c0 -2 30 -57 66 -122 l67 -119 -47 -90 c-25 -49 -46 -93
-46 -97 0 -5 24 -8 53 -8 l52 0 113 214 c61 118 112 217 112 220 0 3 -25 6
-55 6 l-55 0 -31 -70 c-18 -38 -34 -70 -38 -70 -3 0 -23 32 -44 70 l-37 70
-55 0 c-30 0 -55 -2 -55 -4z"/>
<path d="M2984 3135 c-17 -13 -13 -14 49 -15 37 0 67 4 67 9 0 24 -86 29 -116
6z"/>
<path d="M3338 3084 c-39 -11 -15 -24 44 -24 43 0 59 3 52 10 -13 13 -72 21
-96 14z"/>
<path d="M3013 3020 c-35 -14 -28 -21 15 -14 20 3 51 0 67 -6 27 -10 28 -10
15 4 -20 20 -69 28 -97 16z"/>
<path d="M3333 3003 c-26 -10 -12 -21 17 -13 17 5 43 5 60 0 31 -9 43 3 14 14
-18 7 -73 7 -91 -1z"/>
<path d="M3221 2985 c0 -5 13 -55 29 -110 35 -118 35 -122 13 -128 -14 -4 -12
-5 5 -6 18 -1 22 4 21 27 0 27 -66 236 -68 217z"/>
<path d="M3057 2926 c-7 -19 18 -40 39 -32 8 3 14 14 12 23 -4 22 -43 29 -51
9z"/>
<path d="M3356 2921 c-11 -18 6 -42 28 -39 29 4 29 42 -1 46 -11 2 -24 -1 -27
-7z"/>
<path d="M3100 2712 c0 -22 19 -51 43 -63 l22 -12 -21 24 c-12 13 -26 33 -32
44 -6 11 -12 14 -12 7z"/>
<path d="M2560 2221 c-172 -35 -234 -53 -306 -92 -76 -40 -137 -90 -174 -144
-53 -77 -437 -965 -460 -1064 -17 -71 -8 -182 20 -256 18 -45 39 -76 89 -125
104 -104 218 -148 411 -159 93 -5 105 -8 102 -23 -3 -16 8 -18 120 -17 l123 1
-118 40 c-75 25 -117 44 -114 52 3 6 13 57 23 113 l17 102 46 32 c25 18 47 33
49 35 2 1 -29 129 -69 284 -89 348 -92 331 51 343 52 5 438 10 856 10 l761 2
-14 48 c-36 122 -96 284 -112 302 -10 11 -24 47 -31 80 -35 164 -184 284 -434
349 -139 36 -140 37 -201 21 -127 -32 -259 -13 -395 55 -44 22 -85 39 -92 39
-7 -1 -74 -14 -148 -28z"/>
<path d="M4324 1618 l-152 -32 -73 -135 c-41 -74 -75 -139 -77 -143 -2 -4 26
-8 62 -8 78 0 113 -12 127 -43 9 -19 -1 -60 -60 -238 -70 -214 -143 -443 -156
-487 -6 -20 -4 -23 12 -18 10 3 32 8 48 12 47 11 130 50 180 84 40 27 53 47
104 153 63 130 124 281 256 629 l83 217 -57 17 c-88 26 -135 25 -297 -8z"/>
<path d="M2775 806 c-12 -19 -46 -45 -88 -66 -69 -36 -83 -54 -73 -96 8 -32
21 -30 36 5 6 16 40 54 75 85 35 31 67 65 70 77 10 32 2 30 -20 -5z"/>
<path d="M3083 450 c-13 -16 -23 -33 -23 -38 0 -6 -10 -19 -23 -29 -56 -44
-64 -43 430 -41 l468 3 -428 2 -428 3 20 26 c20 26 29 88 14 97 -5 2 -18 -8
-30 -23z"/>
</g>
</svg>
